<svg width="42" height="43" viewBox="0 0 42 43" fill="none" xmlns="http://www.w3.org/2000/svg">
<path d="M4.66667 38.5132C4.66667 40.8732 6.75967 42.7925 9.33333 42.7925H32.6667C35.2403 42.7925 37.3333 40.8732 37.3333 38.5132V12.8377H42V8.55849H32.6667V4.27925C32.6667 1.91924 30.5737 0 28 0H14C11.4263 0 9.33333 1.91924 9.33333 4.27925V8.55849H0V12.8377H4.66667V38.5132ZM14 4.27925H28V8.55849H14V4.27925ZM11.6667 12.8377H32.6667L32.669 38.5132H9.33333V12.8377H11.6667Z" fill="#DE6B48"/>
<path d="M14 17.1171H18.6666V34.234H14V17.1171ZM23.3333 17.1171H28V34.234H23.3333V17.1171Z" fill="#DE6B48"/>
</svg>
