<svg width="48" height="47" viewBox="0 0 48 47" fill="none" xmlns="http://www.w3.org/2000/svg">
<path d="M24.0027 2.00806e-06C10.7411 -0.00536052 0 10.7304 0 23.9812C0 34.4596 6.71925 43.3668 16.0769 46.6379C17.3371 46.9543 17.144 46.0588 17.144 45.4474V41.2915C9.86705 42.1441 9.57211 37.3286 9.08412 36.5242C8.09742 34.8404 5.76472 34.4114 6.46185 33.607C8.11887 32.7543 9.80807 33.8215 11.7654 36.7119C13.1811 38.8086 15.9428 38.4547 17.3424 38.1061C17.6481 36.8459 18.3023 35.7198 19.2032 34.8457C11.6635 33.4944 8.52106 28.8933 8.52106 23.4235C8.52106 20.7691 9.39515 18.3291 11.1112 16.3611C10.0172 13.1167 11.213 10.339 11.3739 9.92604C14.4896 9.64719 17.7285 12.1569 17.9806 12.3553C19.7502 11.878 21.7719 11.626 24.0349 11.626C26.3086 11.626 28.3356 11.8887 30.1213 12.3714C30.7273 11.9102 33.7303 9.75444 36.6261 10.0172C36.7816 10.4301 37.9506 13.1436 36.921 16.345C38.6585 18.3184 39.5433 20.7798 39.5433 23.4396C39.5433 28.9201 36.3794 33.5265 28.8182 34.8564C29.4659 35.4933 29.9801 36.2529 30.3309 37.0908C30.6817 37.9286 30.862 38.828 30.8614 39.7363V45.7692C30.9043 46.2518 30.8614 46.7291 31.6657 46.7291C41.1628 43.5276 48 34.5561 48 23.9866C48 10.7304 37.2535 2.00806e-06 24.0027 2.00806e-06Z" fill="#6B5CA5"/>
</svg>
